# xmcd
#
# Track frame offsets:
#	150
#	11282
#	22313
#	34017
#	44919
#	54485
#	66065
#	77860
#	89202
#	101181
#	114572
#	124610
#
# Disc length: 1886 seconds
#
# Revision: 1
# Processed by: cddbd v1.5.2PL0 Copyright (c) Steve Scherf et al.
# Submitted via: audiograbber 1.83.01
#
DISCID=a8075c0c
DTITLE=Dangerous! - Teenage Rampage
DYEAR=2011
DGENRE=Rock
TTITLE0=Not one of you
TTITLE1=Movers n shakers
TTITLE2=Slo mo video
TTITLE3=Chasing the girls
TTITLE4=Big muff
TTITLE5=Poppies
TTITLE6=Needle
TTITLE7=Nightmare
TTITLE8=Leper
TTITLE9=Ocean
TTITLE10=Huzzy
TTITLE11=D! or die
EXTD=
EXTT0=
EXTT1=
EXTT2=
EXTT3=
EXTT4=
EXTT5=
EXTT6=
EXTT7=
EXTT8=
EXTT9=
EXTT10=
EXTT11=
PLAYORDER=
